<svg xmlns="http://www.w3.org/2000/svg" xmlns:xlink="http://www.w3.org/1999/xlink" width="400" zoomAndPan="magnify" viewBox="0 0 300 112.499997" height="150" preserveAspectRatio="xMidYMid meet" version="1.0"><defs><g/></defs><path fill="#dfd9d9" d="M 278.09375 69.371094 C 278.390625 69.371094 278.628906 69.132812 278.628906 68.835938 C 278.628906 68.539062 278.390625 68.300781 278.09375 68.300781 C 277.796875 68.300781 277.554688 68.539062 277.554688 68.835938 C 277.554688 69.132812 277.796875 69.371094 278.09375 69.371094 Z M 278.09375 69.371094 " fill-opacity="1" fill-rule="nonzero"/><path fill="#dfd9d9" d="M 275.949219 69.371094 C 276.246094 69.371094 276.484375 69.132812 276.484375 68.835938 C 276.484375 68.539062 276.246094 68.300781 275.949219 68.300781 C 275.652344 68.300781 275.410156 68.539062 275.410156 68.835938 C 275.410156 69.132812 275.652344 69.371094 275.949219 69.371094 Z M 275.949219 69.371094 " fill-opacity="1" fill-rule="nonzero"/><path fill="#dfd9d9" d="M 274.351562 62.398438 L 275.925781 62.398438 C 276.222656 63.234375 276.996094 65.601562 277.054688 65.734375 C 277.066406 65.667969 277.847656 63.085938 278.066406 62.410156 L 279.703125 62.410156 L 279.703125 68.300781 C 279.5 68.183594 279.296875 68.066406 279.078125 67.933594 C 278.925781 67.851562 278.785156 67.765625 278.628906 67.699219 C 278.613281 66.554688 278.601562 65.417969 278.566406 64.230469 C 278.347656 64.910156 277.585938 67.316406 277.523438 67.382812 L 276.511719 67.382812 C 276.511719 67.382812 275.527344 64.464844 275.476562 64.332031 C 275.464844 65.453125 275.449219 66.578125 275.414062 67.734375 C 274.808594 68.058594 274.449219 68.242188 274.335938 68.285156 L 274.335938 62.398438 Z M 274.351562 62.398438 " fill-opacity="1" fill-rule="nonzero"/><path fill="#dfd9d9" d="M 277.023438 61.1875 C 279.753906 61.1875 281.984375 63.414062 281.984375 66.152344 C 281.984375 68.890625 279.761719 71.117188 277.023438 71.117188 C 274.28125 71.117188 272.058594 68.890625 272.058594 66.152344 C 272.058594 63.414062 274.28125 61.1875 277.023438 61.1875 Z M 277.023438 60.25 C 273.761719 60.25 271.117188 62.894531 271.117188 66.152344 C 271.117188 69.414062 273.761719 72.054688 277.023438 72.054688 C 280.28125 72.054688 282.921875 69.414062 282.921875 66.152344 C 282.921875 62.894531 280.28125 60.25 277.023438 60.25 Z M 277.023438 60.25 " fill-opacity="1" fill-rule="nonzero"/><path fill="#dfd9d9" d="M 55.164062 66.085938 L 55.164062 90.878906 L 41.683594 90.878906 L 41.683594 82.605469 L 37.519531 87.558594 L 33.386719 82.640625 L 33.386719 90.878906 L 19.910156 90.878906 L 19.910156 66.085938 L 33.390625 66.085938 L 33.390625 66.117188 L 37.523438 71.039062 L 41.6875 66.101562 L 41.6875 66.082031 L 55.167969 66.082031 Z M 55.164062 66.085938 " fill-opacity="1" fill-rule="nonzero"/><path fill="#dfd9d9" d="M 71.34375 71.039062 L 71.34375 76.011719 L 88.972656 76.011719 L 88.972656 80.964844 L 71.34375 80.964844 L 71.34375 85.921875 L 88.972656 85.921875 L 88.972656 90.875 L 57.863281 90.875 L 57.863281 66.082031 L 88.972656 66.082031 L 88.972656 71.039062 Z M 71.34375 71.039062 " fill-opacity="1" fill-rule="nonzero"/><path fill="#dfd9d9" d="M 122.769531 66.082031 L 122.769531 71.035156 L 107.714844 71.035156 C 107 71.046875 106.394531 71.292969 105.898438 71.777344 C 105.394531 72.261719 105.140625 72.84375 105.140625 73.523438 C 105.140625 73.546875 105.132812 76.984375 105.125 83.832031 C 105.148438 84.464844 105.378906 84.964844 105.816406 85.332031 C 106.242188 85.6875 106.804688 85.875 107.507812 85.882812 L 109.289062 85.882812 L 109.289062 76.007812 L 122.769531 76.007812 L 122.769531 90.878906 L 94.480469 90.878906 C 93.707031 90.878906 93.046875 90.613281 92.496094 90.082031 C 91.941406 89.566406 91.664062 88.933594 91.664062 88.183594 L 91.664062 68.777344 C 91.664062 68.027344 91.941406 67.398438 92.496094 66.878906 C 93.046875 66.347656 93.707031 66.085938 94.480469 66.085938 L 122.769531 66.085938 Z M 122.769531 66.082031 " fill-opacity="1" fill-rule="nonzero"/><path fill="#dfd9d9" d="M 146.207031 85.921875 L 139.984375 85.921875 L 138.949219 90.875 L 125.464844 90.875 L 130.648438 66.082031 L 155.535156 66.082031 L 160.71875 90.875 L 147.234375 90.875 L 146.199219 85.921875 Z M 145.167969 80.964844 L 143.09375 71.039062 L 141.019531 80.964844 Z M 145.167969 80.964844 " fill-opacity="1" fill-rule="nonzero"/><path fill="#dfd9d9" d="M 176.894531 71.039062 L 176.894531 76.011719 L 194.523438 76.011719 L 194.523438 80.964844 L 176.894531 80.964844 L 176.894531 85.921875 L 194.523438 85.921875 L 194.523438 90.875 L 163.414062 90.875 L 163.414062 66.082031 L 194.523438 66.082031 L 194.523438 71.039062 Z M 176.894531 71.039062 " fill-opacity="1" fill-rule="nonzero"/><path fill="#dfd9d9" d="M 228.324219 71.039062 L 219.507812 71.039062 L 219.507812 90.875 L 206.03125 90.875 L 206.03125 71.039062 L 197.214844 71.039062 L 197.214844 66.082031 L 228.324219 66.082031 Z M 228.324219 71.039062 " fill-opacity="1" fill-rule="nonzero"/><path fill="#dfd9d9" d="M 266.273438 66.082031 L 266.273438 90.875 L 252.796875 90.875 L 252.796875 80.964844 L 244.5 80.964844 L 244.5 90.875 L 231.019531 90.875 L 231.019531 66.082031 L 244.5 66.082031 L 244.5 76.011719 L 252.796875 76.011719 L 252.796875 66.082031 Z M 266.273438 66.082031 " fill-opacity="1" fill-rule="nonzero"/><g fill="#dfd9d9" fill-opacity="1"><g transform="translate(18.845916, 48.680752)"><g><path d="M 1.472656 -14.976562 L 1.472656 5.921875 L 5.199219 5.921875 L 5.199219 0 L 12.6875 0 C 14.632812 0 16.449219 -0.1875 16.449219 -2.820312 L 16.449219 -12.15625 C 16.449219 -14.789062 14.632812 -14.976562 12.6875 -14.976562 Z M 12.71875 -4.449219 C 12.71875 -3.570312 12.1875 -3.539062 11.339844 -3.539062 L 5.199219 -3.539062 L 5.199219 -11.4375 L 11.339844 -11.4375 C 12.1875 -11.4375 12.71875 -11.40625 12.71875 -10.527344 Z M 12.71875 -4.449219 "/></g></g></g><g fill="#dfd9d9" fill-opacity="1"><g transform="translate(36.607523, 48.680752)"><g><path d="M 8.960938 -11.4375 L 8.960938 -14.976562 L 1.472656 -14.976562 L 1.472656 0 L 5.199219 0 L 5.199219 -11.4375 Z M 8.960938 -11.4375 "/></g></g></g><g fill="#dfd9d9" fill-opacity="1"><g transform="translate(46.287128, 48.680752)"><g><path d="M 16.292969 -12.15625 C 16.292969 -14.789062 14.476562 -14.976562 12.53125 -14.976562 L 5.074219 -14.976562 C 3.132812 -14.976562 1.316406 -14.789062 1.316406 -12.15625 L 1.316406 -2.820312 C 1.316406 -0.1875 3.132812 0 5.074219 0 L 12.53125 0 C 14.476562 0 16.292969 -0.1875 16.292969 -2.820312 Z M 5.042969 -10.527344 C 5.042969 -11.40625 5.578125 -11.4375 6.421875 -11.4375 L 11.183594 -11.4375 C 12.03125 -11.4375 12.5625 -11.40625 12.5625 -10.527344 L 12.5625 -4.449219 C 12.5625 -3.570312 12.03125 -3.539062 11.183594 -3.539062 L 6.421875 -3.539062 C 5.578125 -3.539062 5.042969 -3.570312 5.042969 -4.449219 Z M 5.042969 -10.527344 "/></g></g></g><g fill="#dfd9d9" fill-opacity="1"><g transform="translate(63.89211, 48.680752)"><g><path d="M 5.042969 -14.976562 L 1.316406 -14.976562 L 1.316406 -2.820312 C 1.316406 -0.1875 3.132812 0 5.074219 0 L 16.292969 0 L 16.292969 -14.976562 L 12.5625 -14.976562 L 12.5625 -3.539062 L 6.421875 -3.539062 C 5.578125 -3.539062 5.042969 -3.570312 5.042969 -4.449219 Z M 5.042969 -14.976562 "/></g></g></g><g fill="#dfd9d9" fill-opacity="1"><g transform="translate(81.653717, 48.680752)"><g><path d="M 16.292969 0 L 16.292969 -20.898438 L 12.5625 -20.898438 L 12.5625 -14.976562 L 5.074219 -14.976562 C 3.132812 -14.976562 1.316406 -14.789062 1.316406 -12.15625 L 1.316406 -2.820312 C 1.316406 -0.1875 3.132812 0 5.074219 0 Z M 5.042969 -10.527344 C 5.042969 -11.40625 5.578125 -11.4375 6.421875 -11.4375 L 12.5625 -11.4375 L 12.5625 -3.539062 L 6.421875 -3.539062 C 5.578125 -3.539062 5.042969 -3.570312 5.042969 -4.449219 Z M 5.042969 -10.527344 "/></g></g></g><g fill="#dfd9d9" fill-opacity="1"><g transform="translate(99.415325, 48.680752)"><g><path d="M 5.199219 0 L 5.199219 -20.898438 L 1.472656 -20.898438 L 1.472656 0 Z M 5.199219 0 "/></g></g></g><g fill="#dfd9d9" fill-opacity="1"><g transform="translate(106.087673, 48.680752)"><g><path d="M 1.316406 -2.820312 C 1.316406 -0.1875 3.132812 0 5.074219 0 L 12.5625 0 L 12.5625 1.472656 C 12.5625 2.351562 12.03125 2.382812 11.183594 2.382812 L 1.316406 2.382812 L 1.316406 5.921875 L 12.53125 5.921875 C 14.476562 5.921875 16.292969 5.734375 16.292969 3.101562 L 16.292969 -14.976562 L 12.5625 -14.976562 L 12.5625 -3.539062 L 6.421875 -3.539062 C 5.578125 -3.539062 5.042969 -3.570312 5.042969 -4.449219 L 5.042969 -14.976562 L 1.316406 -14.976562 Z M 1.316406 -2.820312 "/></g></g></g><g fill="#dfd9d9" fill-opacity="1"><g transform="translate(123.84928, 48.680752)"><g/></g></g><g fill="#dfd9d9" fill-opacity="1"><g transform="translate(130.521629, 48.680752)"><g><path d="M 12.6875 0 C 14.632812 0 16.449219 -0.1875 16.449219 -2.820312 L 16.449219 -12.15625 C 16.449219 -14.789062 14.632812 -14.976562 12.6875 -14.976562 L 5.199219 -14.976562 L 5.199219 -20.898438 L 1.472656 -20.898438 L 1.472656 0 Z M 12.71875 -4.449219 C 12.71875 -3.570312 12.1875 -3.539062 11.339844 -3.539062 L 5.199219 -3.539062 L 5.199219 -11.4375 L 11.339844 -11.4375 C 12.1875 -11.4375 12.71875 -11.40625 12.71875 -10.527344 Z M 12.71875 -4.449219 "/></g></g></g><g fill="#dfd9d9" fill-opacity="1"><g transform="translate(148.283236, 48.680752)"><g><path d="M 5.042969 -14.976562 L 1.316406 -14.976562 L 1.316406 -2.820312 C 1.316406 -0.1875 3.132812 0 5.074219 0 L 16.292969 0 L 16.292969 -14.976562 L 12.5625 -14.976562 L 12.5625 -3.539062 L 6.421875 -3.539062 C 5.578125 -3.539062 5.042969 -3.570312 5.042969 -4.449219 Z M 5.042969 -14.976562 "/></g></g></g><g fill="#dfd9d9" fill-opacity="1"><g transform="translate(166.044844, 48.680752)"><g><path d="M 5.199219 -17.324219 L 5.199219 -20.898438 L 1.472656 -20.898438 L 1.472656 -17.324219 Z M 5.199219 0 L 5.199219 -14.976562 L 1.472656 -14.976562 L 1.472656 0 Z M 5.199219 0 "/></g></g></g><g fill="#dfd9d9" fill-opacity="1"><g transform="translate(172.717192, 48.680752)"><g><path d="M 5.199219 0 L 5.199219 -20.898438 L 1.472656 -20.898438 L 1.472656 0 Z M 5.199219 0 "/></g></g></g><g fill="#dfd9d9" fill-opacity="1"><g transform="translate(179.38954, 48.680752)"><g><path d="M 8.960938 -11.4375 L 8.960938 -14.976562 L 5.199219 -14.976562 L 5.199219 -17.324219 L 1.472656 -17.324219 L 1.472656 0 L 5.199219 0 L 5.199219 -11.4375 Z M 8.960938 -11.4375 "/></g></g></g><g fill="#dfd9d9" fill-opacity="1"><g transform="translate(188.975171, 48.680752)"><g/></g></g><g fill="#dfd9d9" fill-opacity="1"><g transform="translate(195.647519, 48.680752)"><g><path d="M 16.292969 -12.15625 C 16.292969 -14.789062 14.476562 -14.976562 12.53125 -14.976562 L 5.074219 -14.976562 C 3.132812 -14.976562 1.316406 -14.789062 1.316406 -12.15625 L 1.316406 -2.820312 C 1.316406 -0.1875 3.132812 0 5.074219 0 L 12.53125 0 C 14.476562 0 16.292969 -0.1875 16.292969 -2.820312 Z M 5.042969 -10.527344 C 5.042969 -11.40625 5.578125 -11.4375 6.421875 -11.4375 L 11.183594 -11.4375 C 12.03125 -11.4375 12.5625 -11.40625 12.5625 -10.527344 L 12.5625 -4.449219 C 12.5625 -3.570312 12.03125 -3.539062 11.183594 -3.539062 L 6.421875 -3.539062 C 5.578125 -3.539062 5.042969 -3.570312 5.042969 -4.449219 Z M 5.042969 -10.527344 "/></g></g></g><g fill="#dfd9d9" fill-opacity="1"><g transform="translate(213.252501, 48.680752)"><g><path d="M 12.71875 0 L 16.449219 0 L 16.449219 -12.15625 C 16.449219 -14.789062 14.632812 -14.976562 12.6875 -14.976562 L 1.472656 -14.976562 L 1.472656 0 L 5.199219 0 L 5.199219 -11.4375 L 11.339844 -11.4375 C 12.1875 -11.4375 12.71875 -11.40625 12.71875 -10.527344 Z M 12.71875 0 "/></g></g></g></svg>
